<?xml version="1.0" encoding="utf-8"?>
<!-- Generator: Adobe Illustrator 24.3.0, SVG Export Plug-In . SVG Version: 6.00 Build 0)  -->
<svg version="1.1" id="Layer_1" xmlns="http://www.w3.org/2000/svg" xmlns:xlink="http://www.w3.org/1999/xlink" x="0px" y="0px"
	 viewBox="0 0 342 161" style="enable-background:new 0 0 342 161;" xml:space="preserve">
<style type="text/css">
	.st0{clip-path:url(#SVGID_2_);}
	.st1{fill:#FFFFFF;}
	.st2{fill:#FC8823;}
</style>
<g>
	<defs>
		<rect id="SVGID_1_" x="0.9" y="0.8" width="341" height="159.5"/>
	</defs>
	<clipPath id="SVGID_2_">
		<use xlink:href="#SVGID_1_"  style="overflow:visible;"/>
	</clipPath>
	<g class="st0">
		<path class="st1" d="M0.9,122.8L65.1,0.8l64.2,121.9H97L65,59.9l-32.8,62.8H0.9z"/>
		<path class="st1" d="M196.1,48.6c10.8,0,20,3.6,27.6,10.8c7.6,7.2,11.4,16,11.4,26.2c0,10.3-3.8,19.1-11.3,26.3
			c-7.5,7.2-16.6,10.8-27.3,10.8h-0.1l-60.3-0.1V96h60.4c2.9,0,5.5-1,7.6-3c2.1-2,3.2-4.4,3.2-7.3s-1.1-5.3-3.2-7.3
			c-2.1-2-4.7-3-7.6-3h-27.2c-10.7,0-19.8-3.6-27.3-10.8c-7.6-7.2-11.3-16-11.3-26.2c0-10.3,3.8-19.1,11.3-26.3
			c7.5-7.2,16.7-10.8,27.4-10.8l60.3,0.1v0.7c0,14.4-12.1,26-27.1,26h-33.1c-2.9,0-5.7,1-7.8,3c-2.1,2-3.1,4.5-3.1,7.4
			s1,5.4,3.1,7.4c2,2,4.9,3,7.8,3L196.1,48.6L196.1,48.6z"/>
		<path class="st1" d="M314.2,48.6V1.1H341v121.6h-26.7V75.3h-45.6v47.5h-26.7V1.1h12.7c7.8,0,14.1,6.3,14.1,14.1v33.4H314.2z"/>
		<path class="st2" d="M65.1,78.8l-23.4,44h45.8L65.1,78.8z"/>
		<path class="st1" d="M1.9,133.6l13.3,14.2l13.3-14.2v26.7h-5.9v-12l-7.4,8.3l-7.4-8.3v12H1.9V133.6z"/>
		<path class="st1" d="M30.3,160.3v-26.7l21.3,0v5.9H36.3v4.5h15.4v5.9H36.3v4.6h15.4v5.9L30.3,160.3L30.3,160.3z"/>
		<path class="st1" d="M63.1,133.6c1.8,0,3.5,0.3,5.1,1c1.6,0.7,3.1,1.6,4.4,2.9c1.3,1.3,2.3,2.7,2.9,4.3c0.7,1.6,1,3.3,1,5.1
			c0,1.8-0.4,3.5-1.1,5.2c-0.7,1.6-1.7,3.1-2.9,4.3c-1.2,1.2-2.6,2.1-4.3,2.8c-1.7,0.7-3.4,1.1-5.2,1.1h-9.5v-26.7L63.1,133.6
			L63.1,133.6z M68.4,152.3c1.5-1.5,2.2-3.2,2.2-5.3s-0.7-3.8-2.2-5.3c-1.5-1.5-3.2-2.2-5.3-2.2h-3.6v14.9h3.6
			C65.2,154.5,67,153.7,68.4,152.3z"/>
		<path class="st1" d="M84.4,160.3h-5.9v-26.7h5.9V160.3z"/>
		<path class="st1" d="M86.3,160.3l14.2-26.8l14.2,26.8h-7.2l-7.1-13.8l-7.3,13.8H86.3z"/>
		<path class="st1" d="M145.9,144.1c2.3,0,4.2,0.8,5.9,2.4c1.6,1.6,2.4,3.5,2.4,5.7c0,2.3-0.8,4.2-2.4,5.8c-1.6,1.6-3.5,2.4-5.8,2.4
			h0l-12.8,0v-5.9H146c0.6,0,1.2-0.2,1.6-0.7s0.7-1,0.7-1.6c0-0.6-0.2-1.2-0.7-1.6s-1-0.7-1.6-0.7h-5.8c-2.3,0-4.2-0.8-5.8-2.4
			c-1.6-1.6-2.4-3.5-2.4-5.7c0-2.3,0.8-4.2,2.4-5.8c1.6-1.6,3.5-2.4,5.8-2.4l12.8,0v5.9h-12.8c-0.6,0-1.2,0.2-1.6,0.7
			c-0.4,0.4-0.7,1-0.7,1.6c0,0.6,0.2,1.2,0.7,1.6c0.4,0.4,1,0.7,1.6,0.7H145.9z"/>
		<path class="st1" d="M162.8,135.5c2.1-1.2,4.3-1.8,6.7-1.8c2.4,0,4.7,0.6,6.7,1.8c2.1,1.2,3.7,2.8,4.9,4.9c1.2,2,1.8,4.3,1.8,6.7
			c0,2.4-0.6,4.7-1.8,6.7c-1.2,2-2.8,3.7-4.9,4.9c-2.1,1.2-4.3,1.8-6.7,1.8c-2.4,0-4.7-0.6-6.7-1.8c-2.1-1.2-3.7-2.8-4.9-4.9
			c-1.2-2-1.8-4.3-1.8-6.7c0-2.4,0.6-4.7,1.8-6.7C159.1,138.3,160.8,136.6,162.8,135.5z M174.9,152.3c1.5-1.5,2.2-3.2,2.2-5.3
			c0-2.1-0.7-3.8-2.2-5.3c-1.5-1.5-3.3-2.2-5.3-2.2c-2.1,0-3.8,0.7-5.3,2.2c-1.5,1.5-2.2,3.2-2.2,5.3c0,2.1,0.7,3.8,2.2,5.3
			c1.5,1.5,3.2,2.2,5.3,2.2C171.6,154.5,173.4,153.8,174.9,152.3z"/>
		<path class="st1" d="M190.8,133.6v20.8h15.4v5.9h-21.3v-26.7H190.8z"/>
		<path class="st1" d="M224.2,149.4v-15.8h5.9v15.8c0,2-0.5,3.8-1.5,5.5c-1,1.7-2.3,3-4,4c-1.7,1-3.5,1.5-5.5,1.5
			c-2,0-3.8-0.5-5.5-1.5c-1.7-1-3-2.3-4-4c-1-1.7-1.5-3.5-1.5-5.5v-15.8h5.9v15.8c0,1.4,0.5,2.6,1.5,3.6c1,1,2.2,1.5,3.6,1.5
			c1.4,0,2.6-0.5,3.6-1.5C223.7,152,224.2,150.8,224.2,149.4z"/>
		<path class="st1" d="M232.1,139.5v-5.9h25.3v5.9h-9.7v20.8h-5.9v-20.8H232.1z"/>
		<path class="st1" d="M265.3,160.3h-5.9v-26.7h5.9V160.3z"/>
		<path class="st1" d="M273.9,135.5c2.1-1.2,4.3-1.8,6.7-1.8c2.4,0,4.7,0.6,6.7,1.8c2.1,1.2,3.7,2.8,4.9,4.9c1.2,2,1.8,4.3,1.8,6.7
			c0,2.4-0.6,4.7-1.8,6.7c-1.2,2-2.8,3.7-4.9,4.9c-2.1,1.2-4.3,1.8-6.7,1.8c-2.4,0-4.7-0.6-6.7-1.8c-2.1-1.2-3.7-2.8-4.9-4.9
			c-1.2-2-1.8-4.3-1.8-6.7c0-2.4,0.6-4.7,1.8-6.7C270.2,138.3,271.8,136.6,273.9,135.5z M285.9,152.3c1.5-1.5,2.2-3.2,2.2-5.3
			c0-2.1-0.7-3.8-2.2-5.3c-1.5-1.5-3.3-2.2-5.3-2.2c-2.1,0-3.8,0.7-5.3,2.2c-1.5,1.5-2.2,3.2-2.2,5.3c0,2.1,0.7,3.8,2.2,5.3
			c1.5,1.5,3.2,2.2,5.3,2.2C282.7,154.5,284.4,153.8,285.9,152.3z"/>
		<path class="st1" d="M312,147v-13.4h5.9v26.5l-16-12.9v13.1H296v-26.7L312,147z"/>
		<path class="st1" d="M333.6,144.1c2.3,0,4.2,0.8,5.9,2.4c1.6,1.6,2.4,3.5,2.4,5.7c0,2.3-0.8,4.2-2.4,5.8c-1.6,1.6-3.5,2.4-5.8,2.4
			h0l-12.8,0v-5.9h12.8c0.6,0,1.2-0.2,1.6-0.7c0.5-0.4,0.7-1,0.7-1.6c0-0.6-0.2-1.2-0.7-1.6c-0.5-0.4-1-0.7-1.6-0.7H328
			c-2.3,0-4.2-0.8-5.8-2.4c-1.6-1.6-2.4-3.5-2.4-5.7c0-2.3,0.8-4.2,2.4-5.8c1.6-1.6,3.5-2.4,5.8-2.4l12.8,0v5.9h-12.8
			c-0.6,0-1.2,0.2-1.6,0.7c-0.4,0.4-0.7,1-0.7,1.6c0,0.6,0.2,1.2,0.7,1.6c0.4,0.4,1,0.7,1.6,0.7H333.6z"/>
	</g>
</g>
</svg>
